<svg width="77" height="64" viewBox="0 0 77 64" fill="none" xmlns="http://www.w3.org/2000/svg">
<path d="M72.9922 48.5803L68.8864 43.9982C69.104 46.6724 68.7435 49.3626 67.8299 51.8812C66.9164 54.3998 65.4719 56.6864 63.5969 58.5816C57.2847 64.9767 47.499 65.7107 40.3831 60.7848C40.2762 60.7102 40.1868 60.6128 40.1212 60.4993C40.0557 60.3859 40.0155 60.2592 40.0037 60.1282C39.9918 59.9973 40.0086 59.8654 40.0527 59.7417C40.0969 59.6181 40.1673 59.5058 40.2591 59.4128L42.8157 56.8226C42.9568 56.6799 43.1413 56.5898 43.3394 56.5667C43.5374 56.5436 43.7373 56.5889 43.9067 56.6953C46.0541 58.026 48.5373 58.6947 51.0534 58.6199C53.5696 58.545 56.0098 57.7298 58.0764 56.2737C60.143 54.8176 61.7466 52.7836 62.6915 50.4198C63.6364 48.0561 63.8818 45.4648 63.3978 42.9621L58.3626 48.5766C58.2821 48.6664 58.1843 48.7387 58.0753 48.7891C57.9664 48.8394 57.8484 48.8669 57.7287 48.8697C57.6089 48.8725 57.4899 48.8506 57.3787 48.8054C57.2675 48.7602 57.1666 48.6926 57.082 48.6067L54.6108 46.1031C54.4449 45.935 54.3517 45.7071 54.3517 45.4694C54.3517 45.2317 54.4449 45.0038 54.6108 44.8357L65.047 34.2625C65.2129 34.0944 65.4379 34 65.6725 34C65.9071 34 66.1321 34.0944 66.2979 34.2625L76.7409 44.8426C76.9068 45.0106 77 45.2386 77 45.4763C77 45.7139 76.9068 45.9419 76.7409 46.11L74.2718 48.6115C74.1872 48.6972 74.0862 48.7645 73.9751 48.8096C73.864 48.8546 73.745 48.8763 73.6254 48.8734C73.5058 48.8704 73.388 48.843 73.2791 48.7926C73.1703 48.7422 73.0727 48.67 72.9922 48.5803Z" fill="url(#paint0_linear_20052_68213)"/>
<rect width="60" height="60" rx="30" fill="url(#paint1_linear_20052_68213)"/>
<path d="M29.9996 11.7664V30H18" stroke="#231F26" stroke-width="3" stroke-linecap="round"/>
<circle cx="30" cy="55" r="2" fill="#231F26"/>
<circle cx="5" cy="30" r="2" fill="#231F26"/>
<circle cx="55" cy="30" r="2" fill="#231F26"/>
<circle cx="18.5" cy="50.5" r="1.5" transform="rotate(-180 18.5 50.5)" fill="#231F26"/>
<circle cx="41.5" cy="9.5" r="1.5" fill="#231F26"/>
<circle cx="10.5" cy="17.5" r="1.5" transform="rotate(-90 10.5 17.5)" fill="#231F26"/>
<circle cx="49.5" cy="42.5" r="1.5" transform="rotate(90 49.5 42.5)" fill="#231F26"/>
<circle cx="10.5" cy="42.5" r="1.5" transform="rotate(-180 10.5 42.5)" fill="#231F26"/>
<circle cx="49.5" cy="17.5" r="1.5" fill="#231F26"/>
<circle cx="18.5" cy="9.5" r="1.5" transform="rotate(-90 18.5 9.5)" fill="#231F26"/>
<circle cx="41.5" cy="50.5" r="1.5" transform="rotate(90 41.5 50.5)" fill="#231F26"/>
<circle cx="30" cy="5" r="2" fill="#231F26"/>
<defs>
<linearGradient id="paint0_linear_20052_68213" x1="76.5406" y1="34.8111" x2="39.1325" y2="35.1201" gradientUnits="userSpaceOnUse">
<stop stop-color="#E35760"/>
<stop offset="1" stop-color="#E35760" stop-opacity="0"/>
</linearGradient>
<linearGradient id="paint1_linear_20052_68213" x1="0" y1="0" x2="71.8488" y2="36.977" gradientUnits="userSpaceOnUse">
<stop stop-color="#E35760"/>
<stop offset="1" stop-color="#E35760" stop-opacity="0"/>
</linearGradient>
</defs>
</svg>
