<svg width="77" height="65" viewBox="0 0 77 65" fill="none" xmlns="http://www.w3.org/2000/svg">
<path d="M0 42H7.16279V65H0V42Z" fill="url(#paint0_linear_20052_68242)"/>
<path d="M34.918 42H42.0808V65H34.918V42Z" fill="url(#paint1_linear_20052_68242)"/>
<path d="M46.5586 36H53.7214V65H46.5586V36Z" fill="url(#paint2_linear_20052_68242)"/>
<path d="M23.2793 31H30.4421V65H23.2793V31Z" fill="url(#paint3_linear_20052_68242)"/>
<path d="M69.8379 31H77.0007V65H69.8379V31Z" fill="url(#paint4_linear_20052_68242)"/>
<path d="M58.1973 18H65.3601V65H58.1973V18Z" fill="url(#paint5_linear_20052_68242)"/>
<path d="M11.6387 49H18.8015V65H11.6387V49Z" fill="url(#paint6_linear_20052_68242)"/>
<path fill-rule="evenodd" clip-rule="evenodd" d="M61.5005 0.5V9.56364H58.5005V5.33168L36.0392 25.2201L25.8033 17.2828L14.7177 29.7978L2.42188 24.6566L3.57917 21.8888L13.895 26.2022L25.4209 13.19L35.9123 21.3254L56.0438 3.5H52.4633V0.5H61.5005Z" fill="url(#paint7_linear_20052_68242)"/>
<defs>
<linearGradient id="paint0_linear_20052_68242" x1="3.5814" y1="42" x2="3.5814" y2="65" gradientUnits="userSpaceOnUse">
<stop stop-color="#E35760"/>
<stop offset="1" stop-color="#E35760" stop-opacity="0"/>
</linearGradient>
<linearGradient id="paint1_linear_20052_68242" x1="38.4994" y1="42" x2="38.4994" y2="65" gradientUnits="userSpaceOnUse">
<stop stop-color="#E35760"/>
<stop offset="1" stop-color="#E35760" stop-opacity="0"/>
</linearGradient>
<linearGradient id="paint2_linear_20052_68242" x1="50.14" y1="36" x2="50.14" y2="65" gradientUnits="userSpaceOnUse">
<stop stop-color="#E35760"/>
<stop offset="1" stop-color="#E35760" stop-opacity="0"/>
</linearGradient>
<linearGradient id="paint3_linear_20052_68242" x1="26.8607" y1="31" x2="26.8607" y2="65" gradientUnits="userSpaceOnUse">
<stop stop-color="#E35760"/>
<stop offset="1" stop-color="#E35760" stop-opacity="0"/>
</linearGradient>
<linearGradient id="paint4_linear_20052_68242" x1="73.4193" y1="31" x2="73.4193" y2="65" gradientUnits="userSpaceOnUse">
<stop stop-color="#E35760"/>
<stop offset="1" stop-color="#E35760" stop-opacity="0"/>
</linearGradient>
<linearGradient id="paint5_linear_20052_68242" x1="61.7787" y1="18" x2="61.7787" y2="65" gradientUnits="userSpaceOnUse">
<stop stop-color="#E35760"/>
<stop offset="1" stop-color="#E35760" stop-opacity="0"/>
</linearGradient>
<linearGradient id="paint6_linear_20052_68242" x1="15.2201" y1="49" x2="15.2201" y2="65" gradientUnits="userSpaceOnUse">
<stop stop-color="#E35760"/>
<stop offset="1" stop-color="#E35760" stop-opacity="0"/>
</linearGradient>
<linearGradient id="paint7_linear_20052_68242" x1="62" y1="0.999998" x2="-2" y2="28.5" gradientUnits="userSpaceOnUse">
<stop stop-color="#E35760"/>
<stop offset="1" stop-color="#E35760" stop-opacity="0"/>
</linearGradient>
</defs>
</svg>
