<svg width="77" height="65" viewBox="0 0 77 65" fill="none" xmlns="http://www.w3.org/2000/svg">
<rect x="40" y="56" width="36" height="9" rx="4" fill="url(#paint0_linear_20052_68257)"/>
<rect x="38" y="47" width="37" height="9" rx="4" fill="url(#paint1_linear_20052_68257)"/>
<rect x="40" y="38" width="37" height="9" rx="4" fill="url(#paint2_linear_20052_68257)"/>
<rect x="39" y="29" width="37" height="9" rx="4" fill="url(#paint3_linear_20052_68257)"/>
<rect x="40" y="20" width="37" height="9" rx="4" fill="url(#paint4_linear_20052_68257)"/>
<rect x="37" y="11" width="37" height="9" rx="4" fill="url(#paint5_linear_20052_68257)"/>
<rect x="40" y="2" width="37" height="9" rx="4" fill="url(#paint6_linear_20052_68257)"/>
<rect y="47" width="37" height="9" rx="4" fill="url(#paint7_linear_20052_68257)"/>
<rect x="1" y="38" width="37" height="9" rx="4" fill="url(#paint8_linear_20052_68257)"/>
<rect y="29" width="37" height="9" rx="4" fill="url(#paint9_linear_20052_68257)"/>
<rect y="56" width="36" height="9" rx="4" fill="url(#paint10_linear_20052_68257)"/>
<defs>
<linearGradient id="paint0_linear_20052_68257" x1="40" y1="56" x2="50.4103" y2="77.4306" gradientUnits="userSpaceOnUse">
<stop stop-color="#E35760"/>
<stop offset="1" stop-color="#E35760" stop-opacity="0"/>
</linearGradient>
<linearGradient id="paint1_linear_20052_68257" x1="38" y1="47" x2="48.2331" y2="68.651" gradientUnits="userSpaceOnUse">
<stop stop-color="#E35760"/>
<stop offset="1" stop-color="#E35760" stop-opacity="0"/>
</linearGradient>
<linearGradient id="paint2_linear_20052_68257" x1="40" y1="38" x2="50.2331" y2="59.651" gradientUnits="userSpaceOnUse">
<stop stop-color="#E35760"/>
<stop offset="1" stop-color="#E35760" stop-opacity="0"/>
</linearGradient>
<linearGradient id="paint3_linear_20052_68257" x1="39" y1="29" x2="49.2331" y2="50.651" gradientUnits="userSpaceOnUse">
<stop stop-color="#E35760"/>
<stop offset="1" stop-color="#E35760" stop-opacity="0"/>
</linearGradient>
<linearGradient id="paint4_linear_20052_68257" x1="40" y1="20" x2="50.2331" y2="41.651" gradientUnits="userSpaceOnUse">
<stop stop-color="#E35760"/>
<stop offset="1" stop-color="#E35760" stop-opacity="0"/>
</linearGradient>
<linearGradient id="paint5_linear_20052_68257" x1="37" y1="11" x2="47.2331" y2="32.651" gradientUnits="userSpaceOnUse">
<stop stop-color="#E35760"/>
<stop offset="1" stop-color="#E35760" stop-opacity="0"/>
</linearGradient>
<linearGradient id="paint6_linear_20052_68257" x1="40" y1="2" x2="50.2331" y2="23.651" gradientUnits="userSpaceOnUse">
<stop stop-color="#E35760"/>
<stop offset="1" stop-color="#E35760" stop-opacity="0"/>
</linearGradient>
<linearGradient id="paint7_linear_20052_68257" x1="0" y1="47" x2="10.2331" y2="68.651" gradientUnits="userSpaceOnUse">
<stop stop-color="#E35760"/>
<stop offset="1" stop-color="#E35760" stop-opacity="0"/>
</linearGradient>
<linearGradient id="paint8_linear_20052_68257" x1="1" y1="38" x2="11.2331" y2="59.651" gradientUnits="userSpaceOnUse">
<stop stop-color="#E35760"/>
<stop offset="1" stop-color="#E35760" stop-opacity="0"/>
</linearGradient>
<linearGradient id="paint9_linear_20052_68257" x1="0" y1="29" x2="10.2331" y2="50.651" gradientUnits="userSpaceOnUse">
<stop stop-color="#E35760"/>
<stop offset="1" stop-color="#E35760" stop-opacity="0"/>
</linearGradient>
<linearGradient id="paint10_linear_20052_68257" x1="0" y1="56" x2="10.4103" y2="77.4306" gradientUnits="userSpaceOnUse">
<stop stop-color="#E35760"/>
<stop offset="1" stop-color="#E35760" stop-opacity="0"/>
</linearGradient>
</defs>
</svg>
