<svg width="78" height="64" viewBox="0 0 78 64" fill="none" xmlns="http://www.w3.org/2000/svg">
<path d="M73.1377 49.5461L69.0204 54.054C69.2386 51.4231 68.8771 48.7765 67.961 46.2986C67.0449 43.8208 65.5963 41.5712 63.716 39.7067C57.3861 33.4153 47.5729 32.6931 40.4369 37.5393C40.3297 37.6126 40.2401 37.7085 40.1743 37.8201C40.1085 37.9317 40.0683 38.0563 40.0564 38.1851C40.0446 38.314 40.0614 38.4438 40.1056 38.5654C40.1499 38.6871 40.2205 38.7975 40.3125 38.889L42.8764 41.4373C43.0179 41.5776 43.2029 41.6663 43.4015 41.6891C43.6001 41.7118 43.8005 41.6672 43.9704 41.5625C46.1238 40.2533 48.6141 39.5954 51.1373 39.6691C53.6605 39.7427 56.1076 40.5448 58.18 41.9773C60.2524 43.4098 61.8605 45.4109 62.8081 47.7364C63.7557 50.0618 64.0018 52.6112 63.5163 55.0733L58.467 49.5497C58.3862 49.4614 58.2882 49.3903 58.1789 49.3407C58.0697 49.2911 57.9514 49.2642 57.8313 49.2614C57.7112 49.2586 57.5918 49.2801 57.4803 49.3246C57.3688 49.3691 57.2676 49.4356 57.1828 49.5201L54.7046 51.9832C54.5383 52.1485 54.4448 52.3728 54.4448 52.6066C54.4448 52.8404 54.5383 53.0647 54.7046 53.23L65.1702 63.632C65.3365 63.7974 65.5622 63.8903 65.7974 63.8903C66.0327 63.8903 66.2583 63.7974 66.4247 63.632L76.897 53.2233C77.0634 53.0579 77.1568 52.8337 77.1568 52.5998C77.1568 52.366 77.0634 52.1418 76.897 51.9764L74.421 49.5154C74.3361 49.4311 74.2349 49.3648 74.1234 49.3205C74.012 49.2763 73.8927 49.2549 73.7728 49.2578C73.6528 49.2606 73.5347 49.2877 73.4255 49.3372C73.3164 49.3868 73.2185 49.4578 73.1377 49.5461Z" fill="url(#paint0_linear_20052_68193)"/>
<rect width="60" height="60" rx="30" fill="url(#paint1_linear_20052_68193)"/>
<path d="M29.9996 11.7664V30H18" stroke="#231F26" stroke-width="3" stroke-linecap="round"/>
<circle cx="30" cy="55" r="2" fill="#231F26"/>
<circle cx="5" cy="30" r="2" fill="#231F26"/>
<circle cx="55" cy="30" r="2" fill="#231F26"/>
<circle cx="18.5" cy="50.5" r="1.5" transform="rotate(-180 18.5 50.5)" fill="#231F26"/>
<circle cx="41.5" cy="9.5" r="1.5" fill="#231F26"/>
<circle cx="10.5" cy="17.5" r="1.5" transform="rotate(-90 10.5 17.5)" fill="#231F26"/>
<circle cx="49.5" cy="42.5" r="1.5" transform="rotate(90 49.5 42.5)" fill="#231F26"/>
<circle cx="10.5" cy="42.5" r="1.5" transform="rotate(-180 10.5 42.5)" fill="#231F26"/>
<circle cx="49.5" cy="17.5" r="1.5" fill="#231F26"/>
<circle cx="18.5" cy="9.5" r="1.5" transform="rotate(-90 18.5 9.5)" fill="#231F26"/>
<circle cx="41.5" cy="50.5" r="1.5" transform="rotate(90 41.5 50.5)" fill="#231F26"/>
<circle cx="30" cy="5" r="2" fill="#231F26"/>
<defs>
<linearGradient id="paint0_linear_20052_68193" x1="76.6961" y1="63.0923" x2="39.1829" y2="62.7764" gradientUnits="userSpaceOnUse">
<stop stop-color="#E35760"/>
<stop offset="1" stop-color="#E35760" stop-opacity="0"/>
</linearGradient>
<linearGradient id="paint1_linear_20052_68193" x1="0" y1="0" x2="71.8488" y2="36.977" gradientUnits="userSpaceOnUse">
<stop stop-color="#E35760"/>
<stop offset="1" stop-color="#E35760" stop-opacity="0"/>
</linearGradient>
</defs>
</svg>
