<svg width="77" height="65" viewBox="0 0 77 65" fill="none" xmlns="http://www.w3.org/2000/svg">
<path fill-rule="evenodd" clip-rule="evenodd" d="M21.005 2.84553C18.4512 3.25743 16.4488 5.25975 16.0369 7.81358L13.6799 22.4271C13.3731 24.3292 13.9984 26.2628 15.3607 27.6252L47.1325 59.397C49.4757 61.7401 53.2747 61.7401 55.6178 59.397L72.5884 42.4264C74.9315 40.0833 74.9315 36.2843 72.5884 33.9411L40.8166 2.16931C39.4542 0.806981 37.5206 0.181723 35.6185 0.488504L21.005 2.84553ZM37.4046 24.2132C39.7478 21.8701 39.7478 18.0711 37.4046 15.7279C35.0615 13.3848 31.2625 13.3848 28.9193 15.7279C26.5762 18.0711 26.5762 21.8701 28.9193 24.2132C31.2625 26.5564 35.0615 26.5563 37.4046 24.2132Z" fill="url(#paint0_linear_20052_68233)"/>
<path d="M19.5801 9.85557L17.7872 22.0469C17.6062 23.2781 18.0084 24.5234 18.8755 25.416L48.6722 56.089C50.2273 57.6898 52.7916 57.7084 54.3697 56.1303L69.1511 41.3489C70.7212 39.7788 70.712 37.2304 69.1307 35.6717L38.4702 5.44919C37.5479 4.54003 36.2424 4.13369 34.967 4.35876L22.8424 6.49841C21.1453 6.79789 19.8308 8.15061 19.5801 9.85557Z" stroke="#231F26" stroke-width="2" stroke-linecap="round" stroke-dasharray="3 3"/>
<rect y="27.8073" width="37" height="37" rx="18.5" fill="url(#paint1_linear_20052_68233)"/>
<path d="M19.7916 35.8075V39.0187H18.0802V35.8075H19.7916ZM19.5763 53.828V56.8075H17.865V53.828H19.5763ZM20.2975 50.1422C20.2975 49.7376 20.2365 49.4029 20.1145 49.138C19.9925 48.8732 19.7952 48.6414 19.5225 48.4428C19.2498 48.2442 18.8875 48.0455 18.4354 47.8469C17.4811 47.4496 16.638 47.0413 15.9061 46.622C15.1813 46.2027 14.6109 45.6803 14.1947 45.055C13.7857 44.4297 13.5812 43.6167 13.5812 42.6162C13.5812 41.704 13.8001 40.9094 14.2378 40.2326C14.6826 39.5558 15.2926 39.0335 16.0675 38.6656C16.8496 38.2904 17.7502 38.1028 18.7691 38.1028C19.544 38.1028 20.2508 38.2205 20.8894 38.4559C21.528 38.6914 22.0806 39.0335 22.547 39.4822C23.0134 39.9236 23.3721 40.468 23.6233 41.1154C23.8744 41.7555 24 42.4838 24 43.3004H20.3728C20.3728 42.8811 20.3297 42.5206 20.2436 42.219C20.1647 41.9173 20.0499 41.6709 19.8992 41.4796C19.7485 41.2883 19.5727 41.1485 19.3718 41.0603C19.1709 40.9646 18.9521 40.9168 18.7153 40.9168C18.3565 40.9168 18.0659 40.9977 17.8434 41.1596C17.621 41.3141 17.4596 41.5201 17.3591 41.7775C17.2586 42.035 17.2084 42.3219 17.2084 42.6383C17.2084 42.9693 17.2622 43.2599 17.3699 43.5101C17.4847 43.7528 17.6784 43.9809 17.9511 44.1943C18.2237 44.4002 18.5969 44.6136 19.0704 44.8343C20.0033 45.2389 20.8356 45.6583 21.5675 46.0923C22.2994 46.5264 22.8735 47.0597 23.2896 47.6924C23.713 48.3177 23.9247 49.127 23.9247 50.1202C23.9247 51.0765 23.7058 51.8932 23.2681 52.57C22.8304 53.2394 22.2205 53.7507 21.4384 54.1039C20.6562 54.457 19.7521 54.6336 18.726 54.6336C18.0372 54.6336 17.3519 54.5416 16.6703 54.3577C15.9958 54.1738 15.3787 53.8758 14.819 53.4638C14.2665 53.0445 13.8252 52.489 13.4951 51.7975C13.165 51.106 13 50.2563 13 49.2484H16.6272C16.6272 49.7413 16.6846 50.1533 16.7994 50.4843C16.9142 50.8154 17.0685 51.0802 17.2622 51.2789C17.4631 51.4701 17.6892 51.6099 17.9403 51.6982C18.1915 51.7791 18.4534 51.8196 18.726 51.8196C19.092 51.8196 19.3898 51.746 19.6194 51.5989C19.849 51.4444 20.0176 51.2421 20.1252 50.9919C20.2401 50.7345 20.2975 50.4512 20.2975 50.1422Z" fill="#231F26"/>
<defs>
<linearGradient id="paint0_linear_20052_68233" x1="76.8862" y1="11.3347" x2="52.3526" y2="77.8676" gradientUnits="userSpaceOnUse">
<stop stop-color="#E35760"/>
<stop offset="1" stop-color="#E35760" stop-opacity="0"/>
</linearGradient>
<linearGradient id="paint1_linear_20052_68233" x1="29" y1="40.8076" x2="-1.16775" y2="83.9745" gradientUnits="userSpaceOnUse">
<stop stop-color="#E35760"/>
<stop offset="1" stop-color="#E35760" stop-opacity="0"/>
</linearGradient>
</defs>
</svg>
