<svg width="131" height="116" viewBox="0 0 131 116" fill="none" xmlns="http://www.w3.org/2000/svg">
<g clip-path="url(#clip0_13992:43281)">
<rect width="119.564" height="27.8641" rx="7" fill="url(#paint0_linear_13992:43281)"/>
<path d="M18.1951 6.19202L19.9458 11.5403H25.6111L21.0278 14.8456L22.7784 20.1939L18.1951 16.8885L13.6118 20.1939L15.3624 14.8456L10.7791 11.5403H16.4444L18.1951 6.19202Z" fill="#E35760"/>
<path d="M38.989 6.19202L40.7397 11.5403H46.405L41.8217 14.8456L43.5724 20.1939L38.989 16.8885L34.4057 20.1939L36.1564 14.8456L31.5731 11.5403H37.2384L38.989 6.19202Z" fill="#E35760"/>
<path d="M59.782 6.19202L61.5327 11.5403H67.198L62.6147 14.8456L64.3654 20.1939L59.782 16.8885L55.1987 20.1939L56.9494 14.8456L52.366 11.5403H58.0313L59.782 6.19202Z" fill="#E35760"/>
<path d="M80.576 6.19202L82.3266 11.5403H87.992L83.4086 14.8456L85.1593 20.1939L80.576 16.8885L75.9926 20.1939L77.7433 14.8456L73.16 11.5403H78.8253L80.576 6.19202Z" fill="#E35760"/>
<rect y="33.0242" width="119.564" height="27.8641" rx="7" fill="url(#paint1_linear_13992:43281)"/>
<path d="M18.1951 39.2163L19.9458 44.5645H25.6111L21.0278 47.8699L22.7784 53.2182L18.1951 49.9128L13.6118 53.2182L15.3624 47.8699L10.7791 44.5645H16.4444L18.1951 39.2163Z" fill="#E35760"/>
<path d="M38.989 39.2163L40.7397 44.5645H46.405L41.8217 47.8699L43.5724 53.2182L38.989 49.9128L34.4057 53.2182L36.1564 47.8699L31.5731 44.5645H37.2384L38.989 39.2163Z" fill="#E35760"/>
<path d="M59.782 39.2163L61.5327 44.5645H67.198L62.6147 47.8699L64.3654 53.2182L59.782 49.9128L55.1987 53.2182L56.9494 47.8699L52.366 44.5645H58.0313L59.782 39.2163Z" fill="#E35760"/>
<path d="M80.576 39.2163L82.3266 44.5645H87.992L83.4086 47.8699L85.1593 53.2182L80.576 49.9128L75.9926 53.2182L77.7433 47.8699L73.16 44.5645H78.8253L80.576 39.2163Z" fill="#E35760"/>
<path d="M101.37 39.2163L103.121 44.5645H108.786L104.203 47.8699L105.953 53.2182L101.37 49.9128L96.7866 53.2182L98.5372 47.8699L93.9539 44.5645H99.6192L101.37 39.2163Z" fill="#E35760"/>
<rect y="66.0482" width="119.564" height="27.8641" rx="7" fill="url(#paint2_linear_13992:43281)"/>
<path d="M18.1951 72.2404L19.9458 77.5886H25.6111L21.0278 80.894L22.7784 86.2422L18.1951 82.9368L13.6118 86.2422L15.3624 80.894L10.7791 77.5886H16.4444L18.1951 72.2404Z" fill="#E35760"/>
<path d="M38.989 72.2404L40.7397 77.5886H46.405L41.8217 80.894L43.5724 86.2422L38.989 82.9368L34.4057 86.2422L36.1564 80.894L31.5731 77.5886H37.2384L38.989 72.2404Z" fill="#E35760"/>
<path d="M59.782 72.2404L61.5327 77.5886H67.198L62.6147 80.894L64.3654 86.2422L59.782 82.9368L55.1987 86.2422L56.9494 80.894L52.366 77.5886H58.0313L59.782 72.2404Z" fill="#E35760"/>
<path d="M97.251 62.8873C97.251 57.272 106.128 56.84 106.128 62.8873V82.5198C106.395 80.5226 107.409 78.4373 110.123 78.4373C113.382 78.4373 114.148 82.0745 114.138 84.3425C114.259 82.6739 115.001 80.1651 118.557 80.1651C122.551 80.1651 122.995 84.4845 122.995 86.6443C123.143 85.3484 124.149 82.7567 126.99 82.7567C130.541 82.7567 130.985 86.6443 130.985 88.372C130.985 95.7151 132.316 115.585 110.123 115.585C87.9298 115.585 88.3737 96.579 88.3737 88.372C88.3737 80.1651 95.0317 78.3728 97.251 78.3728V62.8873Z" fill="url(#paint3_linear_13992:43281)"/>
<rect x="97.2959" y="58.5123" width="8.92196" height="36.4082" rx="4.46098" fill="url(#paint4_linear_13992:43281)"/>
</g>
<defs>
<linearGradient id="paint0_linear_13992:43281" x1="0" y1="0" x2="30.8158" y2="68.0518" gradientUnits="userSpaceOnUse">
<stop stop-color="#E35760"/>
<stop offset="1" stop-color="#E35760" stop-opacity="0"/>
</linearGradient>
<linearGradient id="paint1_linear_13992:43281" x1="0" y1="33.0242" x2="30.8158" y2="101.076" gradientUnits="userSpaceOnUse">
<stop stop-color="#E35760"/>
<stop offset="1" stop-color="#E35760" stop-opacity="0"/>
</linearGradient>
<linearGradient id="paint2_linear_13992:43281" x1="0" y1="66.0482" x2="30.8158" y2="134.1" gradientUnits="userSpaceOnUse">
<stop stop-color="#E35760"/>
<stop offset="1" stop-color="#E35760" stop-opacity="0"/>
</linearGradient>
<linearGradient id="paint3_linear_13992:43281" x1="101.369" y1="58.5123" x2="113.88" y2="115.691" gradientUnits="userSpaceOnUse">
<stop stop-color="#E35760"/>
<stop offset="1" stop-color="#231F26"/>
</linearGradient>
<linearGradient id="paint4_linear_13992:43281" x1="99.7742" y1="59.0324" x2="100.289" y2="89.2748" gradientUnits="userSpaceOnUse">
<stop stop-color="#E35760"/>
<stop offset="1" stop-color="#E35760" stop-opacity="0"/>
</linearGradient>
<clipPath id="clip0_13992:43281">
<rect width="131" height="116" fill="white"/>
</clipPath>
</defs>
</svg>
