<svg width="766" height="86" viewBox="0 0 766 86" fill="none" xmlns="http://www.w3.org/2000/svg">
    <path fill-rule="evenodd" clip-rule="evenodd" d="M85.5894 42.7947C85.5894 66.4296 66.4296 85.5894 42.7947 85.5894C19.1598 85.5894 0 66.4296 0 42.7947C0 19.1598 19.1598 0 42.7947 0C66.4296 0 85.5894 19.1598 85.5894 42.7947ZM68.4715 25.4008C68.4715 28.4505 65.9993 30.9227 62.9496 30.9227C59.9 30.9227 57.4277 28.4505 57.4277 25.4008C57.4277 22.3511 59.9 19.8789 62.9496 19.8789C65.9993 19.8789 68.4715 22.3511 68.4715 25.4008ZM42.5186 25.4005C48.008 25.4005 52.458 22.4338 52.458 18.7742C52.458 15.1146 48.008 12.1479 42.5186 12.1479C37.0293 12.1479 32.5792 15.1146 32.5792 18.7742C32.5792 22.4338 37.0293 25.4005 42.5186 25.4005Z" fill="#FBFF5C"/>
    <path d="M485.84 64.0723C485.84 59.582 484.263 56.0381 481.108 53.4404C477.954 50.8057 472.184 48.3193 463.797 45.9814C455.41 43.6064 449.287 41.0273 445.428 38.2441C439.936 34.3105 437.189 29.1523 437.189 22.7695C437.189 16.5723 439.731 11.5439 444.815 7.68457C449.937 3.78809 456.468 1.83984 464.409 1.83984C469.79 1.83984 474.596 2.87891 478.826 4.95703C483.094 7.03516 486.396 9.92969 488.734 13.6406C491.072 17.3516 492.241 21.4893 492.241 26.0537H485.339C485.339 20.5244 483.446 16.0898 479.661 12.75C475.876 9.37305 470.792 7.68457 464.409 7.68457C458.212 7.68457 453.276 9.07617 449.603 11.8594C445.929 14.6055 444.092 18.2051 444.092 22.6582C444.092 26.7773 445.743 30.1357 449.046 32.7334C452.349 35.3311 457.637 37.6318 464.91 39.6357C472.184 41.6025 477.694 43.6621 481.442 45.8145C485.19 47.9297 488.011 50.4717 489.903 53.4404C491.796 56.4092 492.742 59.916 492.742 63.9609C492.742 70.3438 490.182 75.4648 485.061 79.3242C479.977 83.1836 473.26 85.1133 464.91 85.1133C459.195 85.1133 453.944 84.0928 449.157 82.0518C444.407 80.0107 440.789 77.1533 438.303 73.4795C435.854 69.8057 434.629 65.5938 434.629 60.8438H441.476C441.476 66.5586 443.609 71.0674 447.877 74.3701C452.145 77.6729 457.822 79.3242 464.91 79.3242C471.219 79.3242 476.284 77.9326 480.106 75.1494C483.929 72.3662 485.84 68.6738 485.84 64.0723Z" fill="#FBFF5C"/>
    <path d="M514.396 50.9912V84H507.549V2.95312H535.158C543.582 2.95312 550.225 5.10547 555.086 9.41016C559.984 13.7148 562.434 19.6338 562.434 27.167C562.434 34.7744 560.077 40.6562 555.364 44.8125C550.688 48.9316 543.897 50.9912 534.991 50.9912H514.396ZM514.396 45.2021H535.158C541.801 45.2021 546.866 43.625 550.354 40.4707C553.843 37.3164 555.587 32.9189 555.587 27.2783C555.587 21.6748 553.843 17.2217 550.354 13.9189C546.903 10.5791 541.986 8.87207 535.604 8.79785H514.396V45.2021Z" fill="#FBFF5C"/>
    <path d="M613.867 61.2891H577.073L568.724 84H561.543L592.214 2.95312H598.727L629.397 84H622.272L613.867 61.2891ZM579.188 55.4443H611.696L595.442 11.3027L579.188 55.4443Z" fill="#FBFF5C"/>
    <path d="M698.087 58.7285C697.159 67.2637 694.098 73.7949 688.902 78.3223C683.744 82.8496 676.86 85.1133 668.251 85.1133C662.239 85.1133 656.914 83.6104 652.275 80.6045C647.674 77.5986 644.111 73.3496 641.588 67.8574C639.064 62.3281 637.784 56.0195 637.747 48.9316V38.4111C637.747 31.2119 639.009 24.8291 641.532 19.2627C644.056 13.6963 647.674 9.41016 652.387 6.4043C657.137 3.36133 662.592 1.83984 668.752 1.83984C677.436 1.83984 684.282 4.19629 689.292 8.90918C694.339 13.585 697.271 20.0605 698.087 28.3359H691.185C689.478 14.5684 682 7.68457 668.752 7.68457C661.404 7.68457 655.541 10.4307 651.162 15.9229C646.82 21.415 644.649 29.0039 644.649 38.6895V48.5977C644.649 57.9492 646.765 65.4082 650.995 70.9746C655.263 76.541 661.015 79.3242 668.251 79.3242C675.413 79.3242 680.812 77.6172 684.449 74.2031C688.086 70.752 690.331 65.5938 691.185 58.7285H698.087Z" fill="#FBFF5C"/>
    <path d="M759.484 45.1465H721.577V78.2109H765.162V84H714.73V2.95312H764.884V8.79785H721.577V39.3574H759.484V45.1465Z" fill="#FBFF5C"/>
    <path d="M485.84 64.0723C485.84 59.582 484.263 56.0381 481.108 53.4404C477.954 50.8057 472.184 48.3193 463.797 45.9814C455.41 43.6064 449.287 41.0273 445.428 38.2441C439.936 34.3105 437.189 29.1523 437.189 22.7695C437.189 16.5723 439.731 11.5439 444.815 7.68457C449.937 3.78809 456.468 1.83984 464.409 1.83984C469.79 1.83984 474.596 2.87891 478.826 4.95703C483.094 7.03516 486.396 9.92969 488.734 13.6406C491.072 17.3516 492.241 21.4893 492.241 26.0537H485.339C485.339 20.5244 483.446 16.0898 479.661 12.75C475.876 9.37305 470.792 7.68457 464.409 7.68457C458.212 7.68457 453.276 9.07617 449.603 11.8594C445.929 14.6055 444.092 18.2051 444.092 22.6582C444.092 26.7773 445.743 30.1357 449.046 32.7334C452.349 35.3311 457.637 37.6318 464.91 39.6357C472.184 41.6025 477.694 43.6621 481.442 45.8145C485.19 47.9297 488.011 50.4717 489.903 53.4404C491.796 56.4092 492.742 59.916 492.742 63.9609C492.742 70.3438 490.182 75.4648 485.061 79.3242C479.977 83.1836 473.26 85.1133 464.91 85.1133C459.195 85.1133 453.944 84.0928 449.157 82.0518C444.407 80.0107 440.789 77.1533 438.303 73.4795C435.854 69.8057 434.629 65.5938 434.629 60.8438H441.476C441.476 66.5586 443.609 71.0674 447.877 74.3701C452.145 77.6729 457.822 79.3242 464.91 79.3242C471.219 79.3242 476.284 77.9326 480.106 75.1494C483.929 72.3662 485.84 68.6738 485.84 64.0723Z" fill="#FBFF5C"/>
    <path d="M161.263 62.7363C161.263 59.582 160.149 57.1699 157.923 55.5C155.696 53.793 151.688 52.0117 145.899 50.1562C140.11 48.2637 135.527 46.4082 132.15 44.5898C122.947 39.6172 118.346 32.9189 118.346 24.4951C118.346 20.1162 119.57 16.2197 122.02 12.8057C124.506 9.35449 128.05 6.66406 132.651 4.73438C137.29 2.80469 142.485 1.83984 148.237 1.83984C154.026 1.83984 159.185 2.89746 163.712 5.0127C168.239 7.09082 171.746 10.041 174.232 13.8633C176.756 17.6855 178.018 22.0273 178.018 26.8887H161.318C161.318 23.1777 160.149 20.3018 157.812 18.2607C155.474 16.1826 152.189 15.1436 147.959 15.1436C143.877 15.1436 140.704 16.0156 138.44 17.7598C136.177 19.4668 135.045 21.7305 135.045 24.5508C135.045 27.1855 136.362 29.3936 138.997 31.1748C141.669 32.9561 145.584 34.626 150.742 36.1846C160.242 39.042 167.163 42.5859 171.505 46.8164C175.847 51.0469 178.018 56.3164 178.018 62.625C178.018 69.6387 175.364 75.1494 170.058 79.1572C164.751 83.1279 157.607 85.1133 148.627 85.1133C142.393 85.1133 136.715 83.9814 131.594 81.7178C126.473 79.417 122.558 76.2812 119.849 72.3105C117.177 68.3398 115.841 63.7383 115.841 58.5059H132.596C132.596 67.4492 137.939 71.9209 148.627 71.9209C152.598 71.9209 155.696 71.123 157.923 69.5273C160.149 67.8945 161.263 65.6309 161.263 62.7363Z" fill="white"/>
    <path d="M252.496 60.6211L263.406 2.95312H280.05L262.07 84H245.26L232.067 29.7832L218.875 84H202.064L184.085 2.95312H200.729L211.694 60.5098L225.054 2.95312H239.192L252.496 60.6211Z" fill="white"/>
    <path d="M332.43 67.3008H303.15L297.584 84H279.827L309.997 2.95312H325.472L355.809 84H338.052L332.43 67.3008ZM307.659 53.7744H327.921L317.734 23.4375L307.659 53.7744Z" fill="white"/>
    <path d="M380.078 55.4443V84H363.379V2.95312H394.996C401.082 2.95312 406.426 4.06641 411.027 6.29297C415.666 8.51953 419.229 11.6924 421.715 15.8115C424.201 19.8936 425.444 24.5508 425.444 29.7832C425.444 37.7246 422.717 43.9961 417.262 48.5977C411.844 53.1621 404.329 55.4443 394.718 55.4443H380.078ZM380.078 41.918H394.996C399.412 41.918 402.771 40.8789 405.071 38.8008C407.409 36.7227 408.578 33.7539 408.578 29.8945C408.578 25.9238 407.409 22.7139 405.071 20.2646C402.733 17.8154 399.505 16.5537 395.386 16.4795H380.078V41.918Z" fill="white"/>
    <path d="M161.263 62.7363C161.263 59.582 160.149 57.1699 157.923 55.5C155.696 53.793 151.688 52.0117 145.899 50.1562C140.11 48.2637 135.527 46.4082 132.15 44.5898C122.947 39.6172 118.346 32.9189 118.346 24.4951C118.346 20.1162 119.57 16.2197 122.02 12.8057C124.506 9.35449 128.05 6.66406 132.651 4.73438C137.29 2.80469 142.485 1.83984 148.237 1.83984C154.026 1.83984 159.185 2.89746 163.712 5.0127C168.239 7.09082 171.746 10.041 174.232 13.8633C176.756 17.6855 178.018 22.0273 178.018 26.8887H161.318C161.318 23.1777 160.149 20.3018 157.812 18.2607C155.474 16.1826 152.189 15.1436 147.959 15.1436C143.877 15.1436 140.704 16.0156 138.44 17.7598C136.177 19.4668 135.045 21.7305 135.045 24.5508C135.045 27.1855 136.362 29.3936 138.997 31.1748C141.669 32.9561 145.584 34.626 150.742 36.1846C160.242 39.042 167.163 42.5859 171.505 46.8164C175.847 51.0469 178.018 56.3164 178.018 62.625C178.018 69.6387 175.364 75.1494 170.058 79.1572C164.751 83.1279 157.607 85.1133 148.627 85.1133C142.393 85.1133 136.715 83.9814 131.594 81.7178C126.473 79.417 122.558 76.2812 119.849 72.3105C117.177 68.3398 115.841 63.7383 115.841 58.5059H132.596C132.596 67.4492 137.939 71.9209 148.627 71.9209C152.598 71.9209 155.696 71.123 157.923 69.5273C160.149 67.8945 161.263 65.6309 161.263 62.7363Z" fill="white"/>
    <path d="M252.496 60.6211L263.406 2.95312H280.05L262.07 84H245.26L232.067 29.7832L218.875 84H202.064L184.085 2.95312H200.729L211.694 60.5098L225.054 2.95312H239.192L252.496 60.6211Z" fill="white"/>
    <path d="M332.43 67.3008H303.15L297.584 84H279.827L309.997 2.95312H325.472L355.809 84H338.052L332.43 67.3008ZM307.659 53.7744H327.921L317.734 23.4375L307.659 53.7744Z" fill="white"/>
    <path d="M380.078 55.4443V84H363.379V2.95312H394.996C401.082 2.95312 406.426 4.06641 411.027 6.29297C415.666 8.51953 419.229 11.6924 421.715 15.8115C424.201 19.8936 425.444 24.5508 425.444 29.7832C425.444 37.7246 422.717 43.9961 417.262 48.5977C411.844 53.1621 404.329 55.4443 394.718 55.4443H380.078ZM380.078 41.918H394.996C399.412 41.918 402.771 40.8789 405.071 38.8008C407.409 36.7227 408.578 33.7539 408.578 29.8945C408.578 25.9238 407.409 22.7139 405.071 20.2646C402.733 17.8154 399.505 16.5537 395.386 16.4795H380.078V41.918Z" fill="white"/>
</svg>
